<svg width="24" height="24" viewBox="0 0 24 24" fill="none" xmlns="http://www.w3.org/2000/svg">
<path d="M12 6.5C12.1326 6.5 12.2598 6.55277 12.3535 6.64648C12.4473 6.74025 12.5 6.86739 12.5 7V15.7998L13.3545 14.9434L16.6445 11.6426H16.6455C16.692 11.5957 16.7467 11.5576 16.8076 11.5322C16.8685 11.5069 16.9341 11.4942 17 11.4941C17.0659 11.4941 17.1315 11.5069 17.1924 11.5322C17.2533 11.5576 17.309 11.5957 17.3555 11.6426L17.3584 11.6445C17.4053 11.691 17.4424 11.7467 17.4678 11.8076C17.4932 11.8685 17.5059 11.934 17.5059 12C17.5059 12.066 17.4932 12.1315 17.4678 12.1924C17.4424 12.2533 17.4053 12.309 17.3584 12.3555L17.3564 12.3564L12.3643 17.3486C12.3167 17.3942 12.2606 17.4303 12.1992 17.4541L12.1885 17.458L12.1777 17.4629C12.1218 17.4876 12.0611 17.5 12 17.5C11.9388 17.5 11.8782 17.4876 11.8223 17.4629L11.8115 17.458L11.8008 17.4541L11.7129 17.4092C11.6854 17.3917 11.6594 17.3713 11.6357 17.3486L6.64355 12.3564C6.54908 12.2619 6.49609 12.1336 6.49609 12C6.49609 11.8664 6.54908 11.7381 6.64355 11.6436C6.73805 11.5491 6.86637 11.4961 7 11.4961C7.13342 11.4961 7.26197 11.5484 7.35645 11.6426L10.6465 14.9434L11.5 15.7998V7C11.5 6.86744 11.5528 6.74024 11.6465 6.64648C11.7402 6.55276 11.8675 6.50005 12 6.5Z" fill="#3B3B45" stroke="#FF5252"/>
</svg>
