<svg width="16" height="16" viewBox="0 0 16 16" fill="none" xmlns="http://www.w3.org/2000/svg">
<path fill-rule="evenodd" clip-rule="evenodd" d="M7.99992 14.6666C11.6818 14.6666 14.6666 11.6818 14.6666 7.99998C14.6666 4.31808 11.6818 1.33331 7.99992 1.33331C4.31802 1.33331 1.33325 4.31808 1.33325 7.99998C1.33325 11.6818 4.31802 14.6666 7.99992 14.6666Z" fill="#84919A"/>
<path d="M8.9215 4.59998C9.38293 4.59998 9.61365 4.91403 9.61365 5.27388C9.61365 5.72326 9.21282 6.13889 8.69112 6.13889C8.25414 6.13889 7.99932 5.88063 8.01137 5.45363C8.01137 5.09447 8.31474 4.59998 8.9215 4.59998ZM7.50173 11.4871C7.1374 11.4871 6.87052 11.2625 7.12535 10.2735L7.54339 8.5201C7.61605 8.2398 7.6281 8.12719 7.54339 8.12719C7.43423 8.12719 6.96178 8.32072 6.68182 8.51183L6.5 8.2088C7.38568 7.45605 8.40462 7.01493 8.84195 7.01493C9.20593 7.01493 9.26654 7.45329 9.08472 8.12719L8.60572 9.97017C8.52101 10.2956 8.55717 10.4078 8.64223 10.4078C8.75139 10.4078 9.10951 10.2729 9.46144 9.99221L9.66806 10.2725C8.80648 11.1496 7.86536 11.4871 7.50173 11.4871Z" fill="white"/>
</svg>
