<svg width="19" height="19" viewBox="0 0 19 19" fill="none" xmlns="http://www.w3.org/2000/svg">
<path d="M3.5 9.5C3.5 9.69891 3.57902 9.88968 3.71967 10.0303C3.86032 10.171 4.05109 10.25 4.25 10.25H9.9425L8.2175 11.9675C8.1472 12.0372 8.09141 12.1202 8.05333 12.2116C8.01525 12.303 7.99565 12.401 7.99565 12.5C7.99565 12.599 8.01525 12.697 8.05333 12.7884C8.09141 12.8798 8.1472 12.9628 8.2175 13.0325C8.28722 13.1028 8.37017 13.1586 8.46157 13.1967C8.55296 13.2347 8.65099 13.2543 8.75 13.2543C8.84901 13.2543 8.94704 13.2347 9.03843 13.1967C9.12983 13.1586 9.21278 13.1028 9.2825 13.0325L12.2825 10.0325C12.3508 9.96117 12.4043 9.87706 12.44 9.785C12.515 9.6024 12.515 9.3976 12.44 9.215C12.4043 9.12294 12.3508 9.03883 12.2825 8.9675L9.2825 5.9675C9.21257 5.89757 9.12955 5.8421 9.03819 5.80426C8.94682 5.76641 8.84889 5.74693 8.75 5.74693C8.65111 5.74693 8.55318 5.76641 8.46181 5.80426C8.37045 5.8421 8.28743 5.89757 8.2175 5.9675C8.14757 6.03743 8.0921 6.12045 8.05426 6.21181C8.01641 6.30318 7.99693 6.40111 7.99693 6.5C7.99693 6.59889 8.01641 6.69682 8.05426 6.78819C8.0921 6.87955 8.14757 6.96257 8.2175 7.0325L9.9425 8.75H4.25C4.05109 8.75 3.86032 8.82902 3.71967 8.96967C3.57902 9.11032 3.5 9.30109 3.5 9.5ZM13.25 2H5.75C5.15326 2 4.58097 2.23705 4.15901 2.65901C3.73705 3.08097 3.5 3.65326 3.5 4.25V6.5C3.5 6.69891 3.57902 6.88968 3.71967 7.03033C3.86032 7.17098 4.05109 7.25 4.25 7.25C4.44891 7.25 4.63968 7.17098 4.78033 7.03033C4.92098 6.88968 5 6.69891 5 6.5V4.25C5 4.05109 5.07902 3.86032 5.21967 3.71967C5.36032 3.57902 5.55109 3.5 5.75 3.5H13.25C13.4489 3.5 13.6397 3.57902 13.7803 3.71967C13.921 3.86032 14 4.05109 14 4.25V14.75C14 14.9489 13.921 15.1397 13.7803 15.2803C13.6397 15.421 13.4489 15.5 13.25 15.5H5.75C5.55109 15.5 5.36032 15.421 5.21967 15.2803C5.07902 15.1397 5 14.9489 5 14.75V12.5C5 12.3011 4.92098 12.1103 4.78033 11.9697C4.63968 11.829 4.44891 11.75 4.25 11.75C4.05109 11.75 3.86032 11.829 3.71967 11.9697C3.57902 12.1103 3.5 12.3011 3.5 12.5V14.75C3.5 15.3467 3.73705 15.919 4.15901 16.341C4.58097 16.7629 5.15326 17 5.75 17H13.25C13.8467 17 14.419 16.7629 14.841 16.341C15.2629 15.919 15.5 15.3467 15.5 14.75V4.25C15.5 3.65326 15.2629 3.08097 14.841 2.65901C14.419 2.23705 13.8467 2 13.25 2Z" fill="#FF8600"/>
</svg>
