<svg width="24" height="24" viewBox="0 0 24 24" fill="none" xmlns="http://www.w3.org/2000/svg">
<path d="M12 17.5C11.8674 17.5 11.7402 17.4472 11.6465 17.3535C11.5527 17.2597 11.5 17.1326 11.5 17V8.2002L10.6455 9.05664L7.35547 12.3574H7.35449C7.30803 12.4043 7.25328 12.4424 7.19238 12.4678C7.13151 12.4931 7.06594 12.5058 7 12.5059C6.93408 12.5059 6.86848 12.4931 6.80762 12.4678C6.74669 12.4424 6.69101 12.4043 6.64453 12.3574L6.6416 12.3555C6.59473 12.309 6.55761 12.2533 6.53223 12.1924C6.50684 12.1315 6.49414 12.066 6.49414 12C6.49414 11.934 6.50684 11.8685 6.53223 11.8076C6.55761 11.7467 6.59473 11.691 6.6416 11.6445L6.64355 11.6436L11.6357 6.65137C11.6833 6.60584 11.7394 6.56969 11.8008 6.5459L11.8115 6.54199L11.8223 6.53711C11.8782 6.51245 11.9389 6.5 12 6.5C12.0612 6.50003 12.1218 6.51238 12.1777 6.53711L12.1885 6.54199L12.1992 6.5459L12.2871 6.59082C12.3146 6.60835 12.3406 6.62871 12.3643 6.65137L17.3564 11.6436C17.4509 11.7381 17.5039 11.8664 17.5039 12C17.5039 12.1336 17.4509 12.2619 17.3564 12.3564C17.262 12.4509 17.1336 12.5039 17 12.5039C16.8666 12.5039 16.738 12.4516 16.6436 12.3574L13.3535 9.05664L12.5 8.2002V17C12.5 17.1326 12.4472 17.2598 12.3535 17.3535C12.2598 17.4472 12.1325 17.5 12 17.5Z" stroke="#00A441"/>
</svg>
